HIERARCHY
ROOT Hips
{
	OFFSET 0.00000 0.00000 0.00000
	CHANNELS 6 Xposition Yposition Zposition Zrotation Yrotation Xrotation 
	JOINT LHipJoint
	{
		OFFSET 0 0 0
		CHANNELS 3 Zrotation Yrotation Xrotation
		JOINT LeftHip
		{
			OFFSET 1.77779 -1.88989 0.48267
			CHANNELS 3 Zrotation Yrotation Xrotation
			JOINT LeftKnee
			{
				OFFSET 2.53442 -6.96327 0.00000
				CHANNELS 3 Zrotation Yrotation Xrotation
				JOINT LeftAnkle
				{
					OFFSET 2.71068 -7.44755 0.00000
					CHANNELS 3 Zrotation Yrotation Xrotation
					JOINT LeftToe
					{
						OFFSET 0.17992 -0.49431 2.22524
						CHANNELS 3 Zrotation Yrotation Xrotation
						End Site
						{
							OFFSET 0.00000 -0.00000 1.14687
						}
					}
				}
			}
		}
	}
	JOINT RHipJoint
	{
		OFFSET 0 0 0
		CHANNELS 3 Zrotation Yrotation Xrotation
		JOINT RightHip
		{
			OFFSET -1.58469 -1.88989 0.48267
			CHANNELS 3 Zrotation Yrotation Xrotation
			JOINT RightKnee
			{
				OFFSET -2.60386 -7.15404 0.00000
				CHANNELS 3 Zrotation Yrotation Xrotation
				JOINT RightAnkle
				{
					OFFSET -2.73334 -7.50979 0.00000
					CHANNELS 3 Zrotation Yrotation Xrotation
					JOINT RightToe
					{
						OFFSET -0.25618 -0.70384 2.21822
						CHANNELS 3 Zrotation Yrotation Xrotation
						End Site
						{
							OFFSET -0.00000 -0.00000 1.16381
						}
					}
				}
			}
		}
	}
	JOINT lowerback
	{
		OFFSET 0 0 0
		CHANNELS 3 Zrotation Yrotation Xrotation
		JOINT Chest
		{
			OFFSET 0.03410 2.01612 -0.22230
			CHANNELS 3 Zrotation Yrotation Xrotation
			JOINT Chest2
			{
				OFFSET 0.03465 2.03012 0.00937
				CHANNELS 3 Zrotation Yrotation Xrotation
				JOINT lowerneck
				{
					OFFSET 0 0 0
					CHANNELS 3 Zrotation Yrotation Xrotation
					JOINT Neck
					{
						OFFSET -0.00219 1.70459 0.20857
						CHANNELS 3 Zrotation Yrotation Xrotation
						JOINT Head
						{
							OFFSET 0.02518 1.72339 -0.22179
							CHANNELS 3 Zrotation Yrotation Xrotation
							End Site
							{
								OFFSET 0.00282 1.74122 -0.09823
							}
						}
					}
				}
				JOINT LeftCollar
				{
					OFFSET 0 0 0
					CHANNELS 3 Zrotation Yrotation Xrotation
					JOINT LeftShoulder
					{
						OFFSET 3.36358 1.00547 -0.37661
CHANNELS 3 Zrotation Xrotation Yrotation
						JOINT LeftElbow
						{
OFFSET 0 -5.065070 0.000000
CHANNELS 3 Zrotation Xrotation Yrotation
							JOINT LeftWrist
							{
OFFSET 0 -3.601960 0.000000
CHANNELS 3 Zrotation Xrotation Yrotation
								JOINT lhand
								{
									OFFSET 0 0 0
CHANNELS 3 Zrotation Xrotation Yrotation
									JOINT LFingers
									{
OFFSET 0 -0.450350 0.000000
CHANNELS 3 Zrotation Xrotation Yrotation
										End Site
										{
OFFSET 0 -0.363080 0.000000
										}
									}
								}
								JOINT LThumb
								{
OFFSET 0 0.000000 0.000000
CHANNELS 3 Zrotation Xrotation Yrotation
									End Site
									{
OFFSET 0 -0.368620 0.368620
									}
								}
							}
						}
					}
				}
				JOINT RightCollar
				{
					OFFSET 0 0 0
					CHANNELS 3 Zrotation Yrotation Xrotation
					JOINT RightShoulder
					{
						OFFSET -3.50159 0.80383 -0.71526
CHANNELS 3 Zrotation Xrotation Yrotation
						JOINT RightElbow
						{
OFFSET 0 -5.363940 0.000000
CHANNELS 3 Zrotation Xrotation Yrotation
							JOINT RightWrist
							{
OFFSET 0 -3.580350 0.000000
CHANNELS 3 Zrotation Xrotation Yrotation
								JOINT rhand
								{
									OFFSET 0 0 0
CHANNELS 3 Zrotation Xrotation Yrotation
									JOINT RFingers
									{
OFFSET 0 -0.663750 0.000000
CHANNELS 3 Zrotation Xrotation Yrotation
										End Site
										{
OFFSET 0 -0.535130 0.000000
										}
									}
								}
								JOINT RThumb
								{
OFFSET 0 0.000000 0.000000
CHANNELS 3 Zrotation Xrotation Yrotation
									End Site
									{
OFFSET 0 -0.543300 0.543300
									}
								}
							}
						}
					}
				}
			}
		}
	}
}
MOTION
Frames: 7
Frame Time: 0.008333333333333333
0.289320 18.153221 10.001710 -3.906576 -1.910676 -3.229475 0.000000 0.000000 0.000000 -16.938995 0.888673 -2.770771 9.343553 17.021732 57.267930 0.166282 -10.048166 16.724607 0.381648 -3.955762 -10.953680 0.000000 0.000000 0.000000 29.090975 6.876181 -14.462912 -2.092410 -9.055992 25.970514 -0.188044 -1.119181 -8.658042 -0.243351 -3.034922 8.385828 2.492839 -0.374906 10.107162 2.921273 -0.042333 0.139556 1.658512 -0.048685 -5.531834 -1.701064 -2.342618 -16.651459 -1.009128 -2.568406 22.383901 -0.410533 -1.456051 9.870732 0.000000 0.000000 0.000000 7.291685 -2.412027 -20.269784 15.728222 -25.150316 3.529873 32.666402 4.354677 -20.341240 0.000000 0.000000 0.000000 -7.125000 0.000000 0.000000 4.420456 53.693198 -0.951848 0.000000 0.000000 0.000000 0.098734 1.255781 -6.955108 -9.466066 -15.900051 -1.324953 -21.408880 6.040275 -20.277052 0.000000 0.000000 0.000000 7.125000 0.000000 0.000000 4.510954 8.389483 3.816644
0.279961 18.158862 10.114731 -4.098127 -1.992027 -3.300826 0.000000 0.000000 0.000000 -16.591984 0.913418 -3.595313 9.651458 17.208796 58.316590 0.087046 -10.425499 16.128221 0.462743 -4.361687 -12.096641 0.000000 0.000000 0.000000 29.392726 6.776944 -13.939736 -2.085230 -9.041375 25.924742 -0.235932 -0.674344 -9.442325 -0.078853 -1.769966 4.871683 2.664517 -0.334519 10.147485 2.932620 0.032800 0.168468 1.562737 -0.016054 -5.525103 -1.657792 -2.345054 -16.588378 -0.970985 -2.594818 22.403902 -0.407200 -1.460154 9.865796 0.000000 0.000000 0.000000 7.225655 -2.257081 -20.255552 15.538466 -24.890747 3.449419 32.250605 2.950032 -18.364121 0.000000 0.000000 0.000000 -7.125000 0.000000 0.000000 4.223969 51.362593 -0.663944 0.000000 0.000000 0.000000 0.092003 1.031343 -6.624125 -9.559598 -16.047753 -1.350660 -21.259639 6.019825 -20.257756 0.000000 0.000000 0.000000 7.125000 0.000000 0.000000 4.605063 8.432050 3.892931
0.275543 18.167637 10.225340 -4.089712 -1.929823 -3.322819 0.000000 0.000000 0.000000 -16.543055 0.705532 -4.496576 9.926517 17.366630 59.240255 0.043247 -10.159722 15.122501 0.397630 -4.038440 -11.186121 0.000000 0.000000 0.000000 29.414958 6.580918 -13.516362 -2.082570 -9.036040 25.908078 -0.276889 -0.393071 -10.076603 -0.045978 -1.355619 3.728205 2.704692 -0.345901 10.101626 2.881772 0.015061 0.221789 1.488235 -0.025852 -5.442978 -1.660323 -2.355626 -16.588578 -0.879806 -2.631717 22.380210 -0.379578 -1.466668 9.858810 0.000000 0.000000 0.000000 7.128105 -2.179156 -20.160563 15.427780 -24.738514 3.403016 32.054903 2.569808 -17.601384 0.000000 0.000000 0.000000 -7.125000 0.000000 0.000000 4.102936 50.456824 -0.553949 0.000000 0.000000 0.000000 0.006202 0.666663 -6.428862 -9.558209 -16.045511 -1.350271 -20.793333 6.069465 -20.841191 0.000000 0.000000 0.000000 7.125000 0.000000 0.000000 4.949100 7.892075 4.241384
0.270733 18.176174 10.334310 -4.087983 -1.866686 -3.318608 0.000000 0.000000 0.000000 -16.489085 0.469005 -5.408649 10.187663 17.513047 60.112523 0.002437 -9.716379 13.847473 0.301338 -3.480373 -9.623630 0.000000 0.000000 0.000000 29.453847 6.381235 -13.137322 -2.077371 -9.025495 25.875087 -0.299099 -0.278140 -10.434405 -0.037186 -1.231821 3.386990 2.740292 -0.347858 10.085838 2.842779 0.013611 0.223456 1.427301 -0.027921 -5.432218 -1.721686 -2.377514 -16.521149 -0.771258 -2.674377 22.384347 -0.336249 -1.479038 9.850378 0.000000 0.000000 0.000000 7.018871 -2.033309 -20.120168 15.327494 -24.600286 3.361146 31.785600 2.553407 -17.522978 0.000000 0.000000 0.000000 -7.125000 0.000000 0.000000 3.831643 50.316139 -0.497163 0.000000 0.000000 0.000000 -0.089293 0.393567 -6.186724 -9.579802 -16.079538 -1.356288 -20.351747 6.078919 -21.299429 0.000000 0.000000 0.000000 7.125000 0.000000 0.000000 5.266747 7.479656 4.556529
0.264771 18.183995 10.440855 -4.117921 -1.816939 -3.276811 0.000000 0.000000 0.000000 -16.395937 0.209949 -6.330377 10.429538 17.643889 60.913987 -0.037181 -9.050373 12.175952 0.169407 -2.615252 -7.211610 0.000000 0.000000 0.000000 29.548917 6.185645 -12.820185 -2.067562 -9.005494 25.812454 -0.291471 -0.417380 -10.357092 -0.053982 -1.493313 4.107359 2.782089 -0.329075 10.128020 2.829573 0.048357 0.138386 1.386272 -0.012984 -5.545623 -1.874196 -2.417004 -16.336906 -0.639903 -2.725342 22.438389 -0.269834 -1.500707 9.839801 0.000000 0.000000 0.000000 6.893862 -1.768740 -20.177159 15.235949 -24.473739 3.323131 31.373457 3.023695 -18.434001 0.000000 0.000000 0.000000 -7.125000 0.000000 0.000000 3.307569 51.274665 -0.508638 0.000000 0.000000 0.000000 -0.192377 0.284329 -5.854073 -9.648717 -16.188263 -1.375456 -19.983389 6.015581 -21.490981 0.000000 0.000000 0.000000 7.125000 0.000000 0.000000 5.515417 7.335672 4.789108
0.256811 18.189923 10.544824 -4.257661 -1.874313 -3.247055 0.000000 0.000000 0.000000 -16.161277 0.064640 -7.211981 10.646013 17.756483 61.625316 -0.065598 -8.528194 10.739076 0.110992 -2.124080 -5.849660 0.000000 0.000000 0.000000 29.793810 6.107851 -12.449883 -2.059121 -8.988175 25.758236 -0.283211 -0.576078 -10.278096 -0.062732 -1.614449 4.441261 2.851390 -0.306400 10.206383 2.866430 0.094304 0.100487 1.380372 0.007580 -5.629999 -1.870363 -2.396386 -16.404663 -0.664313 -2.689748 22.629159 -0.277042 -1.487141 9.920042 0.000000 0.000000 0.000000 6.756391 -1.511270 -20.180984 15.188999 -24.408720 3.303679 30.740814 3.515176 -19.979283 0.000000 0.000000 0.000000 -7.125000 0.000000 0.000000 2.402130 52.882911 -0.440338 0.000000 0.000000 0.000000 -0.302771 0.084535 -5.364343 -9.707377 -16.280529 -1.391837 -20.075436 5.703451 -21.576463 0.000000 0.000000 0.000000 7.125000 0.000000 0.000000 5.463917 7.233022 4.754648
0.249181 18.195002 10.648161 -4.430052 -1.965820 -3.231908 0.000000 0.000000 0.000000 -15.887421 -0.042514 -8.060605 10.849412 17.860189 62.291024 -0.088106 -8.077370 9.456854 0.081954 -1.846091 -5.080680 0.000000 0.000000 0.000000 30.076963 6.065527 -12.039887 -2.050496 -8.970441 25.702789 -0.277868 -0.714847 -10.242739 -0.064110 -1.629697 4.483330 2.958703 -0.278482 10.273572 2.903303 0.149549 0.101469 1.351132 0.032114 -5.666999 -1.826173 -2.368245 -16.521643 -0.703693 -2.649751 22.804053 -0.296120 -1.469664 10.002965 0.000000 0.000000 0.000000 6.630797 -1.288628 -20.160759 15.168562 -24.380383 3.295222 30.152843 3.935789 -21.441995 0.000000 0.000000 0.000000 -7.125000 0.000000 0.000000 1.532703 54.399570 -0.350322 0.000000 0.000000 0.000000 -0.403296 -0.192524 -4.865348 -9.746429 -16.341926 -1.402749 -20.277683 5.330063 -21.675004 0.000000 0.000000 0.000000 7.125000 0.000000 0.000000 5.343878 7.100111 4.663045
